<?xml version="1.0" encoding="UTF-8"?>
<svg id="Layer_2" data-name="Layer 2" xmlns="http://www.w3.org/2000/svg" viewBox="0 0 762.04 761.91">
  <defs>
    <style>
      .cls-1 {
        fill: #ff93cc;
      }
    </style>
  </defs>
  <g id="Layer_1-2" data-name="Layer 1">
    <g>
      <path class="cls-1" d="M0,392.78c0-7.94,0-15.88,0-23.81,.31-.38,.83-.73,.89-1.14,3.92-26.92,18.04-47.46,38.45-64.92,34.75-29.74,48.83-68.15,44.87-113.46-5.43-62.1,43.34-110.88,105.5-105.36,26.87,2.38,52.34-1.85,76.29-14.53,17.42-9.23,30.88-22.91,43.8-37.49C329.53,9.78,354.77-.92,384.46,.06c29.14,.97,52.84,13.52,71.5,35.85,30.42,36.39,69.34,52.26,116.55,48.13,62.14-5.43,110.96,43.32,105.43,105.42-2.39,26.86,1.82,52.34,14.51,76.28,9.22,17.42,22.9,30.89,37.48,43.8,22.29,19.73,33,44.95,32.05,74.64-.96,29.75-14.22,53.51-36.88,72.56-35.88,30.17-51.18,68.91-47.12,115.48,5.42,62.19-43.05,110.7-105.41,105.47-17.97-1.51-35.63-.44-52.98,4.86-25.96,7.93-46.95,23.02-64.1,43.81-11.46,13.89-25.55,24.15-42.63,29.99-6.49,2.22-13.23,3.72-19.86,5.55h-23.82c-.38-.31-.73-.83-1.14-.89-26.93-3.9-47.47-18.03-64.93-38.43-29.74-34.74-68.14-48.83-113.46-44.88-62.11,5.42-110.87-43.33-105.44-105.43,1.57-17.96,.42-35.62-4.84-52.97-7.88-25.99-23.07-46.91-43.83-64.05-13.89-11.47-24.12-25.56-29.99-42.63C3.32,406.14,1.83,399.41,0,392.78Z"/>
      <path class="cls-1" d="M393,761.91c6.63-1.83,13.36-3.33,19.86-5.55,17.08-5.84,31.17-16.1,42.63-29.99,17.14-20.79,38.13-35.88,64.1-43.81,17.35-5.3,35.02-6.36,52.98-4.86,62.36,5.23,110.82-43.28,105.41-105.47-4.06-46.57,11.24-85.31,47.12-115.48,22.66-19.05,35.92-42.81,36.88-72.56,.95-29.68-9.76-54.91-32.05-74.64-14.58-12.91-28.26-26.39-37.48-43.8-12.68-23.95-16.9-49.42-14.51-76.28,5.52-62.1-43.3-110.86-105.43-105.42-47.21,4.13-86.13-11.74-116.55-48.13C437.3,13.58,413.6,1.03,384.46,.06c-29.69-.98-54.93,9.72-74.67,32-12.92,14.58-26.38,28.26-43.8,37.49-23.95,12.69-49.42,16.92-76.29,14.53-62.16-5.52-110.92,43.27-105.5,105.36,3.96,45.32-10.12,83.73-44.87,113.46C18.93,320.36,4.81,340.91,.89,367.83c-.06,.41-.58,.76-.89,1.14"/>
      <path class="cls-1" d="M0,392.78c1.83,6.62,3.32,13.36,5.55,19.85,5.86,17.06,16.1,31.16,29.99,42.63,20.76,17.14,35.95,38.06,43.83,64.05,5.26,17.35,6.41,35.01,4.84,52.97-5.43,62.1,43.33,110.85,105.44,105.43,45.32-3.95,83.73,10.14,113.46,44.88,17.46,20.4,38,34.53,64.93,38.43,.41,.06,.76,.58,1.14,.89"/>
    </g>
  </g>
</svg>